<?xml version="1.0" encoding="UTF-8" standalone="no"?>
<svg
   viewBox="0 0 488 488"
   version="1.1"
   id="svg1"
   sodipodi:docname="airplane.svg"
   width="488"
   height="488"
   inkscape:version="1.4.3 (0d15f75, 2025-12-25)"
   inkscape:export-filename="C:\Users\james-t\Downloads\airplane.png"
   inkscape:export-xdpi="96"
   inkscape:export-ydpi="96"
   xmlns:inkscape="http://www.inkscape.org/namespaces/inkscape"
   xmlns:sodipodi="http://sodipodi.sourceforge.net/DTD/sodipodi-0.dtd"
   xmlns="http://www.w3.org/2000/svg"
   xmlns:svg="http://www.w3.org/2000/svg"
   xmlns:rdf="http://www.w3.org/1999/02/22-rdf-syntax-ns#"
   xmlns:cc="http://creativecommons.org/ns#"
   xmlns:dc="http://purl.org/dc/elements/1.1/">
  <defs
     id="defs1" />
  <sodipodi:namedview
     id="namedview1"
     pagecolor="#505050"
     bordercolor="#eeeeee"
     borderopacity="1"
     inkscape:showpageshadow="0"
     inkscape:pageopacity="0"
     inkscape:pagecheckerboard="0"
     inkscape:deskcolor="#505050"
     inkscape:zoom="2.3222656"
     inkscape:cx="243.94281"
     inkscape:cy="243.94281"
     inkscape:window-width="2560"
     inkscape:window-height="1369"
     inkscape:window-x="-8"
     inkscape:window-y="-8"
     inkscape:window-maximized="1"
     inkscape:current-layer="svg1" />
  <title
     id="title1">airport-badge</title>
  <!-- badge -->
  <circle
     cx="244"
     cy="244"
     r="236"
     fill="#140e36"
     stroke="#f5f5f5"
     stroke-width="16"
     id="circle1" />
  <!-- airplane (your original, centered + scaled) -->
  <g
     transform="matrix(12,0,0,12,-3668,-3656)"
     fill="#feb555"
     id="g1">
    <path
       d="m 341.207,309.82 c -1.246,-1.25 -3.436,-0.957 -4.689,0.299 l -6.377,6.362 -11.828,-4.42 c -1.133,-0.293 -2.274,-0.672 -3.679,0.737 -0.717,0.718 -2.207,2.212 0,4.423 l 8.11,6.64 -5.277,5.266 -4.924,-1.231 c -0.73,-0.188 -1.222,-0.041 -1.597,0.373 -0.189,0.236 -1.56,1.252 -0.604,2.21 l 5.725,4.454 4.454,5.725 c 0.692,0.694 1.335,0.261 2.214,-0.574 0.557,-0.558 0.437,-0.845 0.269,-1.658 l -1.112,-4.89 5.241,-5.259 6.63,8.112 c 2.206,2.211 3.697,0.716 4.414,0 1.406,-1.41 1.028,-2.552 0.735,-3.687 l -4.383,-11.848 6.351,-6.373 c 1.253,-1.255 1.574,-3.412 0.327,-4.661"
       id="path1" />
  </g>
  <metadata
     id="metadata1">
    <rdf:RDF>
      <cc:Work
         rdf:about="">
        <dc:title>airport-badge</dc:title>
      </cc:Work>
    </rdf:RDF>
  </metadata>
</svg>
