<?xml version="1.0" encoding="UTF-8" standalone="no"?>
<!-- Uploaded to: SVG Repo, www.svgrepo.com, Generator: SVG Repo Mixer Tools -->

<svg
   version="1.1"
   id="chapel"
   width="436.09375"
   height="768.01251"
   viewBox="0 0 139.55 245.764"
   xml:space="preserve"
   sodipodi:docname="chapel-svgrepo-com.svg"
   inkscape:export-filename="chapel.png"
   inkscape:export-xdpi="96"
   inkscape:export-ydpi="96"
   inkscape:version="1.4.3 (0d15f75, 2025-12-25)"
   xmlns:inkscape="http://www.inkscape.org/namespaces/inkscape"
   xmlns:sodipodi="http://sodipodi.sourceforge.net/DTD/sodipodi-0.dtd"
   xmlns="http://www.w3.org/2000/svg"
   xmlns:svg="http://www.w3.org/2000/svg"><defs
   id="defs3" /><sodipodi:namedview
   id="namedview3"
   pagecolor="#505050"
   bordercolor="#eeeeee"
   borderopacity="1"
   inkscape:showpageshadow="0"
   inkscape:pageopacity="0"
   inkscape:pagecheckerboard="0"
   inkscape:deskcolor="#505050"
   inkscape:zoom="1.48625"
   inkscape:cx="209.58789"
   inkscape:cy="375.10513"
   inkscape:window-width="2560"
   inkscape:window-height="1369"
   inkscape:window-x="2552"
   inkscape:window-y="-8"
   inkscape:window-maximized="1"
   inkscape:current-layer="chapel" />
<style
   type="text/css"
   id="style1">
<![CDATA[
	.st0{fill:#D1D1D1;}
	.st1{fill:#454545;}
]]>
</style>
<path
   class="st0"
   d="M 131.293,145.003 103.02,108.711 V 91.983 c 0.061,-0.661 0.096,-1.347 0.096,-2.063 V 55.382 c 0,-7.228 -2.723,-17.399 -6.333,-23.658 L 83.434,8.577 C 80.29,3.126 75.312,0 69.776,0 64.239,0 59.261,3.126 56.117,8.577 L 42.768,31.723 c -3.611,6.26 -6.333,16.432 -6.333,23.659 v 34.539 18.915 L 8.257,145.004 C 3.472,151.146 0,161.254 0,169.038 v 56.726 c 0,11.028 8.972,20 20,20 h 20.166 59.22 20.164 c 11.028,0 20,-8.972 20,-20 v -56.726 c 0,-7.785 -3.472,-17.893 -8.257,-24.035 z"
   id="path1"
   style="fill:#f5f5f5;fill-opacity:1" />
<path
   class="st1"
   d="m 63.63,77.848 c 3.38,-4.339 8.911,-4.339 12.291,0 L 86.97,92.032 c 3.38,4.339 6.146,3.389 6.146,-2.111 V 55.382 c 0,-5.5 -2.248,-13.898 -4.996,-18.663 L 74.772,13.573 c -2.748,-4.764 -7.244,-4.765 -9.992,0 L 51.431,36.719 c -2.748,4.765 -4.996,13.163 -4.996,18.663 v 34.539 c 0,5.5 2.766,6.45 6.146,2.111 z"
   id="path2"
   style="fill:#8a0062;fill-opacity:1" />
<path
   class="st1"
   d="M 123.405,151.149 75.922,90.199 c -3.38,-4.339 -8.911,-4.339 -12.291,0 l -47.485,60.95 C 12.766,155.488 10,163.538 10,169.038 v 56.726 c 0,5.5 4.5,10 10,10 h 20.166 c 5.5,0 10,-4.5 10,-10 v -2.909 h 0.169 v -23.251 c 0,-5.5 2.64,-13.645 5.867,-18.098 l 7.646,-10.555 c 3.227,-4.453 8.518,-4.461 11.758,-0.017 l 7.719,10.588 c 3.24,4.444 5.891,12.581 5.891,18.081 v 23.25 h 0.171 v 2.909 c 0,5.5 4.5,10 10,10 h 20.164 c 5.5,0 10,-4.5 10,-10 v -56.726 c -10e-4,-5.498 -2.766,-13.548 -6.146,-17.887 z M 76.853,138.457 c 0,2.002 -1.639,3.641 -3.641,3.641 h -6.874 c -2.002,0 -3.641,-1.639 -3.641,-3.641 v -8.466 c 0,-2.002 0.961,-4.968 2.136,-6.589 l 2.784,-3.843 c 1.176,-1.622 3.102,-1.624 4.281,-0.006 l 2.81,3.855 c 1.18,1.618 2.145,4.581 2.145,6.583 z"
   id="path3"
   style="fill:#8a0062;fill-opacity:1" />
</svg>
