<?xml version="1.0" encoding="UTF-8" standalone="no"?>
<!-- Uploaded to: SVG Repo, www.svgrepo.com, Generator: SVG Repo Mixer Tools -->

<svg
   version="1.1"
   id="drop"
   x="0px"
   y="0px"
   width="470.0661"
   height="680.35626"
   viewBox="0 0 150.42115 217.714"
   xml:space="preserve"
   sodipodi:docname="drop-svgrepo-com.svg"
   inkscape:version="1.4.3 (0d15f75, 2025-12-25)"
   inkscape:export-filename="drop.png"
   inkscape:export-xdpi="112.88"
   inkscape:export-ydpi="112.88"
   xmlns:inkscape="http://www.inkscape.org/namespaces/inkscape"
   xmlns:sodipodi="http://sodipodi.sourceforge.net/DTD/sodipodi-0.dtd"
   xmlns="http://www.w3.org/2000/svg"
   xmlns:svg="http://www.w3.org/2000/svg"><defs
   id="defs2" /><sodipodi:namedview
   id="namedview2"
   pagecolor="#505050"
   bordercolor="#eeeeee"
   borderopacity="1"
   inkscape:showpageshadow="0"
   inkscape:pageopacity="0"
   inkscape:pagecheckerboard="0"
   inkscape:deskcolor="#505050"
   inkscape:zoom="1.48625"
   inkscape:cx="240.53827"
   inkscape:cy="313.20437"
   inkscape:window-width="2560"
   inkscape:window-height="1369"
   inkscape:window-x="2552"
   inkscape:window-y="-8"
   inkscape:window-maximized="1"
   inkscape:current-layer="drop" />
<style
   type="text/css"
   id="style1">
<![CDATA[
	.st0{fill:#464646;}
	.st1{fill:#D1D1D1;}
]]>
</style>
<path
   class="st1"
   d="m 149.88633,133.513 c -1.719,-15.675 -7.188,-29.78 -11.758,-40.321 -12.295,-28.336 -29.04,-53.468 -42.255002,-72.198 -2.748,-3.895 -5.517,-7.604 -8.447,-11.532 -1.321,-1.772 -2.66,-3.565 -4.013,-5.398 -1.793,-2.431 -4.588,-3.92 -7.604,-4.054 -0.148,-0.006 -0.295,-0.01 -0.443,-0.01 -2.858,0 -5.589,1.225 -7.491,3.376 -0.229,0.26 -0.415,0.463 -0.568,0.632 -0.392,0.432 -0.798,0.878 -1.243,1.465 -13.113,17.289 -23.883,33.004 -32.926,48.045 -14.088,23.437 -22.938,42.356 -28.6919996,61.346 -6.162,20.331 -5.921,38.327 0.734,55.021 11.5829996,29.053 39.1069996,47.825 70.1219996,47.829 0.004,0 0.005,0 0.009,0 20.824,0 40.237002,-8.412 54.660002,-23.687 15.784,-16.716 22.485,-37.078 19.915,-60.514 z"
   id="path1"
   style="fill:#f5f5f5;fill-opacity:1" />
<path
   class="st0"
   d="m 139.94533,134.604 c -1.438,-13.117 -5.781,-25.42 -10.99,-37.431 -10.904,-25.131 -25.516,-48.109 -41.252002,-70.413 -3.922,-5.559 -8.062,-10.964 -12.336,-16.76 -0.716,0.81 -1.052,1.143 -1.335,1.516 -11.529,15.2 -22.487,30.794 -32.322,47.154 -11.266,18.741 -21.318,38.058 -27.692,59.094 -4.9059996,16.188 -5.9409996,32.383 0.453,48.418 18.048,45.268 75.665,55.469 108.230002,20.98 13.892,-14.715 19.451,-32.45 17.244,-52.558 z m -76.517002,41.789 c -2.313,3.596 -6.677,5.295 -11.323,4.355 -5.597,-1.132 -10.022,-4.076 -13.071,-8.938 -8.08,-12.889 -10.28,-26.658 -6.68,-41.512 3.103,-12.798 8.474,-24.646 14.242,-36.366 0.136,-0.276 0.378,-0.501 0.22,-0.296 -0.678,7.883 -1.899,16.166 -1.993,24.463 -0.164,14.517 4.584,27.7 12.528,39.768 1.65,2.505 3.413,4.936 5.089,7.424 2.365,3.51 3.519,7.17 0.988,11.102 z"
   id="path2"
   style="fill:#0018d6;fill-opacity:1" />
</svg>
