<?xml version="1.0" encoding="UTF-8" standalone="no"?>
<svg
   version="1.1"
   id="library"
   viewBox="0 0 487.99996 487.99996"
   sodipodi:docname="library.svg"
   width="487.99997"
   height="487.99997"
   inkscape:version="1.4.2 (f4327f4, 2025-05-13)"
   inkscape:export-filename="C:\Users\james-t\Downloads\library.png"
   inkscape:export-xdpi="5370.6299"
   inkscape:export-ydpi="5370.6299"
   xmlns:inkscape="http://www.inkscape.org/namespaces/inkscape"
   xmlns:sodipodi="http://sodipodi.sourceforge.net/DTD/sodipodi-0.dtd"
   xmlns="http://www.w3.org/2000/svg"
   xmlns:svg="http://www.w3.org/2000/svg">
  <defs
     id="defs1" />
  <sodipodi:namedview
     id="namedview1"
     pagecolor="#505050"
     bordercolor="#eeeeee"
     borderopacity="1"
     inkscape:showpageshadow="0"
     inkscape:pageopacity="0"
     inkscape:pagecheckerboard="0"
     inkscape:deskcolor="#505050"
     inkscape:zoom="1.7515624"
     inkscape:cx="237.7877"
     inkscape:cy="230.93667"
     inkscape:window-width="2560"
     inkscape:window-height="1369"
     inkscape:window-x="2552"
     inkscape:window-y="-8"
     inkscape:window-maximized="1"
     inkscape:current-layer="library" />
  <!-- badge -->
  <circle
     cx="243.99998"
     cy="243.99998"
     fill="#140e36"
     stroke="#f5f5f5"
     stroke-width="17.0629"
     id="circle1"
     r="235.46854" />
  <!-- scaled original symbol -->
  <g
     transform="matrix(28.665735,0,0,28.665735,29.006975,29.006975)"
     fill="#72e6ff"
     id="g1">
    <path
       d="M 1.0819,9.9388 C 0.9871,9.867 1.0007,9.7479 1.0007,9.7479 L 1.5259,3.5 c 0,0 0.0082,-0.0688 0.0388,-0.104 C 1.584,3.374 1.6084,3.342 1.6544,3.3232 2.1826,3.1072 5.0537,1.5519 6.5,3 6.7397,3.2777 6.9999,3.6876 6.9999,4 v 5.2879 c 0,0 0.0062,0.1122 -0.0953,0.1801 C 6.8807,9.484 6.7806,9.5296 6.6626,9.4706 4.4373,8.3572 1.9516,9.6252 1.3245,9.9577 1.1987,10.0244 1.1006,9.9531 1.0819,9.9388 Z M 13.6754,9.9577 C 13.0483,9.6252 10.5626,8.3572 8.3373,9.4706 8.2193,9.5296 8.1192,9.484 8.0953,9.468 7.9939,9.4001 8.0001,9.2879 8.0001,9.2879 V 4 C 8.0001,3.6876 8.2603,3.2777 8.5,3 9.9463,1.5519 12.7991,3.1071 13.3273,3.3232 13.3733,3.342 13.3977,3.374 13.417,3.396 13.4476,3.4312 13.4558,3.5 13.4558,3.5 l 0.5435,6.2479 c 0,0 0.0136,0.1191 -0.0812,0.1909 -0.0187,0.0143 -0.1168,0.0856 -0.2427,0.0189 z M 8.8647,12.6863 C 8.8999,12.6778 8.9611,12.642 8.9826,12.6088 9.0062,12.5724 9.0204,12.5471 9.0249,12.5 c 0.0495,-0.9379 1.6245,-1.8119 4.6477,-0.0298 0.0775,0.0441 0.1666,0.0396 0.2425,-0.0155 C 14.0014,12.392 14,12.2859 14,12.2859 v -0.5542 c 0,0 3e-4,-0.0764 -0.0272,-0.1184 C 13.9523,11.5821 13.9252,11.549 13.8802,11.5275 11.8548,10.213 9.2944,9.6303 7.9948,11.3683 7.9767,11.4106 7.9595,11.4296 7.922,11.4588 7.8654,11.5028 7.7964,11.5 7.7964,11.5 H 7.2109 c 0,0 -0.069,0.0028 -0.1256,-0.0412 C 7.0478,11.4296 7.0306,11.4106 7.0125,11.3683 5.7129,9.6303 3.1525,10.1855 1.1271,11.5 1.0821,11.5215 1.055,11.5546 1.0345,11.5858 1.007,11.6278 1.0073,11.7042 1.0073,11.7042 v 0.5542 c 0,0 -0.0014,0.1061 0.0849,0.1688 0.0759,0.0551 0.165,0.0596 0.2425,0.0155 3.0232,-1.7821 4.5982,-0.8806 4.6477,0.0573 0.0045,0.0471 0.0187,0.0724 0.0423,0.1088 0.0215,0.0332 0.0827,0.069 0.1179,0.0775 0.7219,0.1793 1.7686,0.25 2.7221,0 z"
       id="path1" />
  </g>
</svg>
