<?xml version="1.0" encoding="UTF-8" standalone="no"?>
<!-- Created with Inkscape (http://www.inkscape.org/) -->

<svg
   width="39.116001mm"
   height="50.037998mm"
   viewBox="0 0 39.116002 50.037998"
   version="1.1"
   id="svg1"
   xml:space="preserve"
   xmlns:inkscape="http://www.inkscape.org/namespaces/inkscape"
   xmlns:sodipodi="http://sodipodi.sourceforge.net/DTD/sodipodi-0.dtd"
   xmlns="http://www.w3.org/2000/svg"
   xmlns:svg="http://www.w3.org/2000/svg"><sodipodi:namedview
     id="namedview1"
     pagecolor="#505050"
     bordercolor="#eeeeee"
     borderopacity="1"
     inkscape:showpageshadow="0"
     inkscape:pageopacity="0"
     inkscape:pagecheckerboard="0"
     inkscape:deskcolor="#505050"
     inkscape:document-units="mm"><inkscape:page
       x="0"
       y="0"
       width="39.116001"
       height="50.037998"
       id="page2"
       margin="0"
       bleed="0" /></sodipodi:namedview><defs
     id="defs1"><filter
       style="color-interpolation-filters:sRGB"
       inkscape:label="Drop Shadow"
       id="filter58"
       x="-0.045365282"
       y="-0.032369784"
       width="1.128535"
       height="1.0917144"><feFlood
         result="flood"
         in="SourceGraphic"
         flood-opacity="0.498039"
         flood-color="rgb(0,0,0)"
         id="feFlood57" /><feGaussianBlur
         result="blur"
         in="SourceGraphic"
         stdDeviation="0.500000"
         id="feGaussianBlur57" /><feOffset
         result="offset"
         in="blur"
         dx="1.000000"
         dy="1.000000"
         id="feOffset57" /><feComposite
         result="comp1"
         operator="in"
         in="flood"
         in2="offset"
         id="feComposite57" /><feComposite
         result="comp2"
         operator="over"
         in="SourceGraphic"
         in2="comp1"
         id="feComposite58" /></filter></defs><g
     inkscape:label="Layer 1"
     inkscape:groupmode="layer"
     id="layer1"
     transform="translate(-4.3241427,-121.82951)"><path
       id="path25"
       style="fill:#f5f5f5;fill-opacity:1"
       d="m 4.3241427,148.25679 v -23.52538 l 0.9101667,0.24598 c 3.890675,1.05152 8.3285266,2.59207 12.0861676,4.19556 2.073522,0.88483 5.496582,2.59772 6.477,3.24107 1.111463,0.72935 2.002134,1.6478 2.422198,2.49774 0.315241,0.63785 0.32925,0.70155 0.324425,1.47536 -0.004,0.63583 -0.04546,0.90636 -0.194075,1.26543 -0.580046,1.4014 -2.114876,2.90459 -4.267962,4.17999 -0.430239,0.25486 -1.341602,0.79375 -2.02525,1.19755 -7.149675,4.22294 -11.2272216,9.95135 -11.5662896,16.2491 -0.116472,2.16334 0.06287,3.93378 0.62002,6.12064 0.4653764,1.82664 1.4337056,4.18593 2.3502156,5.72618 l 0.390445,0.65616 H 8.0876734 4.3241427 Z M 31.20581,171.66371 c -0.1397,-0.11069 -0.775589,-0.76749 -1.413087,-1.45956 -2.767643,-3.00456 -4.618415,-5.57982 -5.986042,-8.3293 -1.94238,-3.90496 -2.203359,-7.16042 -0.792162,-9.88147 0.807369,-1.55676 2.29002,-3.2115 5.941717,-6.63138 2.645804,-2.47784 3.777012,-4.09165 4.247715,-6.05991 0.228088,-0.95375 0.193102,-2.50378 -0.07338,-3.25115 -0.781589,-2.19203 -2.55326,-4.0049 -5.892149,-6.02917 -4.455017,-2.70095 -11.531212,-5.35135 -20.077944,-7.52021 l -2.6246666,-0.66605 19.4521676,-0.003 19.452166,-0.003 v 25.019 25.019 l -5.990167,-9.4e-4 -5.990166,-9.4e-4 z" /><path
       id="path41"
       style="fill:#28649f;fill-opacity:1;fill-rule:evenodd;stroke:none;stroke-width:1.07818;stroke-opacity:1;filter:url(#filter58)"
       d="m 17.958946,135.16862 h 3.706826 c 4.137483,0 4.315055,0.0204 5.457998,0.61957 1.302677,0.68296 2.311811,2.06141 2.662139,3.63607 0.205341,0.92297 0.141071,2.38088 -0.142635,3.22989 -0.605515,1.81206 -2.074471,3.18534 -3.856145,3.60542 -0.452273,0.10663 -1.32455,0.13489 -4.199361,0.13596 l -3.628822,0.001 v -5.61401 z m -7.302775,-6.85592 v 18.5358 18.53581 h 3.651666 3.651109 v -6.06198 -6.0614 l 4.039453,-0.0417 c 4.418638,-0.0452 4.829322,-0.0846 6.545586,-0.63127 4.498099,-1.43282 7.689168,-5.14436 8.460567,-9.84123 0.175308,-1.06741 0.11904,-3.63249 -0.100853,-4.60219 -0.565871,-2.49547 -1.777071,-4.64094 -3.598178,-6.37397 -1.687783,-1.60614 -3.658616,-2.63565 -6.108211,-3.19034 -0.867443,-0.19641 -1.044347,-0.20134 -8.713519,-0.23401 z" /></g></svg>
