<?xml version="1.0" encoding="UTF-8" standalone="no"?>
<!-- Created with Inkscape (http://www.inkscape.org/) -->

<svg
   width="381.48224mm"
   height="488mm"
   viewBox="0 0 381.48225 488"
   version="1.1"
   id="svg1"
   xml:space="preserve"
   sodipodi:docname="pec2.svg"
   inkscape:version="1.4.2 (f4327f4, 2025-05-13)"
   xmlns:inkscape="http://www.inkscape.org/namespaces/inkscape"
   xmlns:sodipodi="http://sodipodi.sourceforge.net/DTD/sodipodi-0.dtd"
   xmlns="http://www.w3.org/2000/svg"
   xmlns:svg="http://www.w3.org/2000/svg"><sodipodi:namedview
     id="namedview1"
     pagecolor="#505050"
     bordercolor="#eeeeee"
     borderopacity="1"
     inkscape:showpageshadow="0"
     inkscape:pageopacity="0"
     inkscape:pagecheckerboard="0"
     inkscape:deskcolor="#505050"
     inkscape:document-units="mm"
     inkscape:zoom="0.54541668"
     inkscape:cx="591.29105"
     inkscape:cy="811.30632"
     inkscape:window-width="2560"
     inkscape:window-height="1369"
     inkscape:window-x="2552"
     inkscape:window-y="-8"
     inkscape:window-maximized="1"
     inkscape:current-layer="layer1"><inkscape:page
       x="0"
       y="2.2160401e-12"
       width="381.48224"
       height="488"
       id="page2"
       margin="0"
       bleed="0" /></sodipodi:namedview><defs
     id="defs1"><filter
       style="color-interpolation-filters:sRGB"
       inkscape:label="Drop Shadow"
       id="filter58"
       x="-0.045365282"
       y="-0.032369784"
       width="1.128535"
       height="1.0917144"><feFlood
         result="flood"
         in="SourceGraphic"
         flood-opacity="0.498039"
         flood-color="rgb(0,0,0)"
         id="feFlood57" /><feGaussianBlur
         result="blur"
         in="SourceGraphic"
         stdDeviation="0.500000"
         id="feGaussianBlur57" /><feOffset
         result="offset"
         in="blur"
         dx="1.000000"
         dy="1.000000"
         id="feOffset57" /><feComposite
         result="comp1"
         operator="in"
         in="flood"
         in2="offset"
         id="feComposite57" /><feComposite
         result="comp2"
         operator="over"
         in="SourceGraphic"
         in2="comp1"
         id="feComposite58" /></filter></defs><g
     inkscape:label="Layer 1"
     inkscape:groupmode="layer"
     id="layer1"
     transform="translate(-4.3241427,-121.82943)"><path
       id="rect1"
       style="fill:#d3d3d3;fill-opacity:1;stroke-width:0.221852"
       d="m 4.8535156,609.30078 c 126.8079444,0 253.6158844,0 380.4238244,0 0,-162.3138 0,-324.6276 0,-486.9414 -126.80794,0 -253.61588,-1e-5 -380.4238244,0 0,162.3138 0,324.6276 0,486.9414 z" /><path
       d="m 385.80628,121.82943 -189.70883,0.0295 -191.7733071,-0.0295 27.6613601,6.55413 c 83.352757,21.15199 152.364387,47.00052 195.812337,73.34178 32.56281,19.74187 49.84117,37.42206 57.46368,58.80003 2.59889,7.28879 2.94016,22.40558 0.71572,31.70711 -4.59058,19.19563 -15.62298,34.9344 -41.42642,59.09975 -35.6135,33.35268 -50.60236,48.96185 -58.4763,64.14429 -13.76282,26.53728 -11.21761,58.28637 7.72562,96.36983 13.33791,26.81455 31.3877,51.93001 58.37938,81.23225 6.21726,6.74947 12.41915,13.15528 13.78159,14.23479 l 2.4958,1.98739 58.40074,-0.009 58.41969,0.009 V 365.30076 Z M 4.3241427,150.13054 V 379.56409 L 4.8535156,609.30078 H 40.998043 78.096409 l -4.171863,-6.70276 c -8.938344,-15.02143 -18.381941,-38.0307 -22.920565,-55.84517 -5.433655,-21.32754 -7.182563,-38.59381 -6.04666,-59.69197 3.306791,-61.41936 43.073037,-117.28634 112.800869,-158.47094 6.66734,-3.93809 15.55582,-9.19333 19.75176,-11.67888 20.99816,-12.43845 35.96635,-27.0987 41.6233,-40.76598 1.44938,-3.50186 1.85391,-6.14038 1.89291,-12.34137 0.0471,-7.54665 -0.0897,-8.16758 -3.16415,-14.38827 -4.09671,-8.28911 -12.78269,-17.2467 -23.62233,-24.35975 -9.56161,-6.27433 -42.94552,-22.97903 -63.16772,-31.60841 C 94.425234,177.8091 51.144753,162.7844 13.200603,152.52936 Z"
       style="fill:#51575d;stroke-width:9.75259;fill-opacity:0.60000002"
       id="path1"
       sodipodi:nodetypes="ccccsssssssccccccccccccssscscscscc" /><path
       id="path41"
       style="fill:#28649f;fill-opacity:1;fill-rule:evenodd;stroke:none;stroke-width:1.07818;stroke-opacity:1;filter:url(#filter58)"
       d="m 17.958946,135.16862 h 3.706826 c 4.137483,0 4.315055,0.0204 5.457998,0.61957 1.302677,0.68296 2.311811,2.06141 2.662139,3.63607 0.205341,0.92297 0.141071,2.38088 -0.142635,3.22989 -0.605515,1.81206 -2.074471,3.18534 -3.856145,3.60542 -0.452273,0.10663 -1.32455,0.13489 -4.199361,0.13596 l -3.628822,0.001 v -5.61401 z m -7.302775,-6.85592 v 18.5358 18.53581 h 3.651666 3.651109 v -6.06198 -6.0614 l 4.039453,-0.0417 c 4.418638,-0.0452 4.829322,-0.0846 6.545586,-0.63127 4.498099,-1.43282 7.689168,-5.14436 8.460567,-9.84123 0.175308,-1.06741 0.11904,-3.63249 -0.100853,-4.60219 -0.565871,-2.49547 -1.777071,-4.64094 -3.598178,-6.37397 -1.687783,-1.60614 -3.658616,-2.63565 -6.108211,-3.19034 -0.867443,-0.19641 -1.044347,-0.20134 -8.713519,-0.23401 z"
       transform="matrix(9.752588,0,0,9.752588,-37.84744,-1066.3235)" /></g></svg>
