<?xml version="1.0" encoding="UTF-8" standalone="no"?>
<svg
   version="1.1"
   id="pump-station"
   width="800px"
   height="800px"
   viewBox="0 0 256 256"
   sodipodi:docname="square.svg"
   inkscape:version="1.4.2 (f4327f4, 2025-05-13)"
   xmlns:inkscape="http://www.inkscape.org/namespaces/inkscape"
   xmlns:sodipodi="http://sodipodi.sourceforge.net/DTD/sodipodi-0.dtd"
   xmlns="http://www.w3.org/2000/svg"
   xmlns:svg="http://www.w3.org/2000/svg">
  <defs
     id="defs3" />
  <sodipodi:namedview
     id="namedview3"
     pagecolor="#ffffff"
     bordercolor="#000000"
     borderopacity="0.25"
     inkscape:showpageshadow="2"
     inkscape:pageopacity="0.0"
     inkscape:pagecheckerboard="0"
     inkscape:deskcolor="#d1d1d1"
     inkscape:zoom="1.45875"
     inkscape:cx="400"
     inkscape:cy="400"
     inkscape:window-width="2560"
     inkscape:window-height="1369"
     inkscape:window-x="2552"
     inkscape:window-y="-8"
     inkscape:window-maximized="1"
     inkscape:current-layer="pump-station" />
  <!-- Outer square (light gray) -->
  <rect
     x="20"
     y="20"
     width="216"
     height="216"
     rx="24"
     ry="24"
     style="fill:#f5f5f5;"
     id="rect1" />
  <!-- Middle square (blue ring) -->
  <path
     id="rect2"
     style="fill:#28649f"
     d="m 149.01953,26.564453 c -25.43642,0.0047 -50.873406,0.02331 -76.308588,0.292812 -7.610102,-0.145415 -15.126868,2.118012 -21.725001,5.829283 -11.247715,6.314218 -19.966788,17.280145 -22.888926,29.914191 -1.439198,6.281253 -1.55897,12.770035 -1.564654,19.186361 0.07717,5.981401 0.03851,11.962596 0.03836,17.944148 0.04419,29.114692 -0.04252,58.232882 0.325749,87.344632 1.736271,17.10012 13.656801,32.67143 29.637298,38.94852 7.697805,3.06621 16.109723,3.4339 24.29709,3.41301 35.044081,-0.0484 70.090611,0.0948 105.132461,-0.32419 8.44849,-0.40444 16.56838,-3.74415 23.42308,-8.59516 9.66293,-6.90713 16.88596,-17.47338 18.91248,-29.2605 1.63806,-9.10615 1.04019,-18.39558 1.14622,-27.59623 -0.0894,-31.42677 0.13797,-62.85752 -0.43375,-94.280526 -1.29544,-16.968264 -12.97106,-32.411612 -28.53869,-39.021429 -6.18646,-2.701463 -12.97409,-3.774441 -19.695,-3.767337 -8.29607,-0.104976 -16.59382,-0.01168 -24.89055,-0.03289 -2.28919,0.0018 -4.57838,0.0035 -6.86758,0.0053 z" />
  <!-- Inner square (light gray center) -->
  <path
     id="rect3"
     style="fill:#f5f5f5"
     d="m 135.75,67.683594 c -12.93894,0.0408 -25.88532,-0.02383 -38.817434,0.373589 C 83.199421,70.050288 71.3457,81.209098 68.493089,94.78478 c -1.319692,7.06493 -0.64032,14.27973 -0.804622,21.41795 0.04126,14.30148 -0.201218,28.61683 0.523982,42.9042 1.51425,12.41216 10.867021,23.21439 22.580578,27.26859 4.058325,1.46015 8.39508,2.01793 12.695633,1.89883 14.15316,7.7e-4 28.30785,0.14791 42.4599,-0.0871 4.5194,-0.0969 9.04546,-0.17497 13.55506,-0.45113 12.92609,-1.82923 24.08589,-11.98727 27.52971,-24.51791 1.90031,-6.9442 1.14209,-14.20287 1.27123,-21.30691 -0.0348,-14.69954 0.13791,-29.406 -0.39014,-44.098573 -1.42195,-14.701659 -13.7542,-27.387099 -28.28677,-29.631736 -4.88356,-0.778907 -9.84521,-0.417204 -14.76749,-0.506739 -3.03672,7.43e-4 -6.07344,0.0066 -9.11016,0.0093 z" />
</svg>
