<?xml version="1.0" encoding="UTF-8" standalone="no"?>
<!-- Uploaded to: SVG Repo, www.svgrepo.com, Generator: SVG Repo Mixer Tools -->

<svg
   version="1.1"
   id="trinagle"
   width="800px"
   height="800px"
   viewBox="0 0 256 256"
   xml:space="preserve"
   sodipodi:docname="triangle-svgrepo-com.svg"
   inkscape:version="1.4.3 (0d15f75, 2025-12-25)"
   xmlns:inkscape="http://www.inkscape.org/namespaces/inkscape"
   xmlns:sodipodi="http://sodipodi.sourceforge.net/DTD/sodipodi-0.dtd"
   xmlns="http://www.w3.org/2000/svg"
   xmlns:svg="http://www.w3.org/2000/svg"><defs
   id="defs2" /><sodipodi:namedview
   id="namedview2"
   pagecolor="#505050"
   bordercolor="#eeeeee"
   borderopacity="1"
   inkscape:showpageshadow="0"
   inkscape:pageopacity="0"
   inkscape:pagecheckerboard="0"
   inkscape:deskcolor="#505050"
   inkscape:zoom="1.48625"
   inkscape:cx="400"
   inkscape:cy="400"
   inkscape:window-width="2560"
   inkscape:window-height="1369"
   inkscape:window-x="-8"
   inkscape:window-y="-8"
   inkscape:window-maximized="1"
   inkscape:current-layer="trinagle" />
<style
   type="text/css"
   id="style1">
<![CDATA[
	.st0{fill:#D1D1D1;}
	.st1{fill:#454545;}
]]>
</style>
<path
   class="st0"
   d="M36.042,238.86c-10.096,0-19.358-5.513-24.172-14.387c-4.814-8.874-4.385-19.645,1.12-28.107l91.958-141.389  C110.04,47.146,118.658,42.47,128,42.47s17.96,4.676,23.053,12.507l91.958,141.39c5.505,8.461,5.934,19.231,1.119,28.106  c-4.814,8.874-14.076,14.387-24.172,14.387H36.042z"
   id="path1"
   style="fill:#f5f5f5;fill-opacity:1" />
<path
   class="st1"
   d="M234.628,201.819L142.67,60.429c-3.229-4.964-8.748-7.959-14.67-7.959c-5.921,0-11.441,2.995-14.67,7.959  l-91.958,141.39c-3.5,5.38-3.773,12.244-0.712,17.886s8.964,9.155,15.382,9.155h183.917c6.418,0,12.321-3.514,15.382-9.155  S238.128,207.199,234.628,201.819z M68.299,193.86L128,102.067l59.7,91.793H68.299z"
   id="path2"
   style="fill:#e89513;fill-opacity:1" />
</svg>
