<?xml version="1.0" encoding="UTF-8" standalone="no"?>
<!-- Uploaded to: SVG Repo, www.svgrepo.com, Generator: SVG Repo Mixer Tools -->

<svg
   version="1.1"
   id="water_well"
   width="653.61877"
   height="699.44006"
   viewBox="0 0 209.15801 223.82082"
   xml:space="preserve"
   sodipodi:docname="water-well-svgrepo-com.svg"
   inkscape:version="1.4.3 (0d15f75, 2025-12-25)"
   inkscape:export-filename="waterwell.png"
   inkscape:export-xdpi="109.8"
   inkscape:export-ydpi="109.8"
   xmlns:inkscape="http://www.inkscape.org/namespaces/inkscape"
   xmlns:sodipodi="http://sodipodi.sourceforge.net/DTD/sodipodi-0.dtd"
   xmlns="http://www.w3.org/2000/svg"
   xmlns:svg="http://www.w3.org/2000/svg"><defs
   id="defs14" /><sodipodi:namedview
   id="namedview14"
   pagecolor="#505050"
   bordercolor="#eeeeee"
   borderopacity="1"
   inkscape:showpageshadow="0"
   inkscape:pageopacity="0"
   inkscape:pagecheckerboard="0"
   inkscape:deskcolor="#505050"
   inkscape:zoom="1.48625"
   inkscape:cx="330.02523"
   inkscape:cy="328.67956"
   inkscape:window-width="2560"
   inkscape:window-height="1369"
   inkscape:window-x="2552"
   inkscape:window-y="-8"
   inkscape:window-maximized="1"
   inkscape:current-layer="water_well" />
<style
   type="text/css"
   id="style1">
<![CDATA[
	.st0{fill:#D1D1D1;}
	.st1{fill:#454545;}
]]>
</style>
<path
   id="path1"
   style="fill:#f5f5f5;fill-opacity:1"
   class="st0"
   d="m 139.22835,0.01968788 c -24.16444,0.03032 -48.330691,-0.07417 -72.493938,0.08508 C 62.700911,0.46735688 58.936384,2.3535929 55.889747,4.9659969 38.275452,18.295963 20.62442,31.579334 3.0921382,45.016331 c -1.345967,0.957756 -2.42979095,2.309175 -2.82282795,3.936988 -0.65416,2.155169 -0.110921,4.65738 1.56777995,6.204733 1.689974,1.703554 4.181617,2.366919 6.529932,2.193032 9.9543918,0.03361 19.9088538,0.0187 29.8632828,0.02212 -0.534543,7.547036 -0.229976,15.121873 -0.318572,22.706254 0.007,15.51746 -0.04183,31.037182 0.087,46.553112 0.248944,2.01438 0.54619,4.02238 0.819462,6.0336 -4.462596,-0.34184 -8.879291,-1.38485 -13.193324,-1.45171 -4.140647,0.33215 -7.855529,3.93849 -7.967102,8.15466 -0.175699,2.84985 0.0075,5.70799 -0.06322,8.56151 0.01294,3.38123 -0.111246,6.72349 0.241222,10.07344 0.399539,1.92224 1.970199,3.63633 1.550781,5.6914 -0.357827,1.60913 -1.593749,2.91411 -1.642578,4.61133 -0.362355,2.8311 -0.02461,5.68917 -0.144937,8.53202 0.03735,2.97525 -0.181255,5.88348 0.334816,8.81118 0.400196,1.48502 1.167192,2.83196 1.849184,4.19977 -1.775931,2.26692 -2.414852,5.22552 -2.202188,8.05799 0.120981,4.14383 -0.226193,8.28034 0.2725,12.37755 0.96153,4.18897 4.813013,7.507 9.103516,7.82813 5.866519,0.6824 11.71939,1.50817 17.585281,2.21202 2.458462,0.25065 4.904249,0.69736 7.374855,0.78649 1.690984,0.0579 3.284154,-0.56193 4.809395,-1.2114 0.521488,-0.21513 0.970123,0.0166 1.341797,0.38867 2.376673,1.71927 5.394562,2.11654 8.25506,2.07791 13.569206,0.44549 27.141776,1.05598 40.705997,1.45369 2.14867,-0.14194 4.11713,-1.13495 5.96082,-2.17613 2.16742,1.53762 4.88513,2.16448 7.51563,1.88477 8.19976,-0.79508 16.41867,-1.47571 24.6347,-2.21864 12.81319,-1.14755 25.63393,-2.25106 38.43609,-3.49602 4.76326,-0.99495 8.37592,-5.80415 7.95929,-10.66347 -0.0189,-4.07645 0.0966,-8.15879 -0.0848,-12.23125 -0.15691,-1.56637 -0.85143,-2.99535 -1.51367,-4.39258 -0.42208,-1.35167 0.45477,-2.58292 0.96093,-3.76367 1.04961,-3.05164 0.53872,-6.21274 0.64328,-9.38203 -0.0396,-3.29366 0.17638,-6.61369 -0.26828,-9.88555 -0.49118,-1.81599 -1.96616,-3.50342 -1.50593,-5.482 0.36711,-1.54095 1.50862,-2.81487 1.58101,-4.44205 0.44453,-2.87907 0.0665,-5.74516 0.19264,-8.67595 -0.0463,-3.69955 0.18363,-7.39259 -0.25809,-11.03821 -0.84004,-3.4714 -4.00319,-6.28408 -7.51138,-6.61009 -2.84196,-0.1852 -5.52528,0.56321 -8.36934,0.85572 -1.77052,0.24745 -3.64169,0.50211 -5.45117,0.75196 0.77908,-2.90819 1.32742,-5.88971 1.26949,-8.85817 0.0538,-9.74577 -0.0179,-19.49195 0.008,-29.237932 -0.009,-10.83361 0.0223,-21.671439 -0.0724,-32.50233 -0.47762,-2.672158 2.10178,-5.430593 4.81884,-4.926432 8.94886,0.04319 17.90087,0.102527 26.84782,-0.05823 3.34936,-0.251796 6.49811,-3.207832 6.32874,-6.680141 -0.0811,-2.727228 -1.92343,-5.090973 -4.18358,-6.466865 C 186.77622,30.348451 168.62758,16.511354 150.3542,2.8444889 147.05105,0.71676888 143.07305,-0.14496312 139.22835,0.01968788 Z" />
<path
   class="st1"
   d="m 107.39465,162.21419 c 0,2.199 -1.791,4.223 -3.983,4.441 -15.470001,1.146 -31.110001,0.415 -46.580001,-2.19 -2.188,-0.426 -3.973,-2.617 -3.973,-4.816 0,-5.217 0,-10.434 0,-15.65 0,-2.201 1.786,-3.609 3.973,-3.184 15.47,2.606 31.11,3.337 46.580001,2.191 2.193,-0.219 3.983,1.357 3.983,3.559 0,5.216 0,10.432 0,15.649 z"
   id="path2" />
<path
   class="st1"
   d="m 161.15765,143.48619 c 0,-2.201 -1.783,-3.586 -3.97,-3.141 -13.436,2.435 -27.012,3.276 -40.447,2.524 -2.191,-0.173 -3.981,1.436 -3.981,3.637 0,5.217 0,10.434 0,15.65 0,2.199 1.79,4.19 3.981,4.363 13.436,0.752 27.012,-0.09 40.447,-2.524 2.187,-0.445 3.969,-2.66 3.97,-4.859 0,-5.216 0,-10.433 0,-15.65 z"
   id="path3" />
<path
   class="st1"
   d="m 169.61365,138.92019 c -2.183,0.094 -3.958,1.854 -3.958,4.057 0,5.217 0,10.433 0,15.649 0,2.198 1.775,4.037 3.958,3.944 4.148,-0.214 8.321,-0.788 12.47,-1.721 2.177,-0.508 3.947,-2.839 3.947,-5.037 0,-5.217 0,-10.434 0,-15.65 0,-2.202 -1.771,-3.472 -3.947,-2.963 -4.148,0.933 -8.321,1.507 -12.47,1.721 z"
   id="path4" />
<path
   class="st1"
   d="m 63.778649,197.34519 c -2.189,-0.396 -3.977,1.031 -3.977,3.232 0,3.965 0,7.931 0,11.896 0,2.199 1.787,4.371 3.977,4.768 14.164,2.227 28.479,2.759 42.644001,1.597 2.194,-0.232 3.984,-2.27 3.984,-4.469 0,-3.965 0,-7.931 0,-11.896 0,-2.201 -1.79,-3.764 -3.984,-3.531 -14.165001,1.161 -28.480001,0.629 -42.644001,-1.597 z"
   id="path5" />
<path
   class="st1"
   d="m 76.903649,175.49119 c 0,-2.201 -1.785,-3.884 -3.972,-3.794 -15.235,0.23 -30.636,-1.383 -45.871,-4.84 -2.175,-0.55 -3.951,0.756 -3.95,2.957 0,4.466 0,8.931 0,13.396 0,2.199 1.775,4.493 3.95,5.043 15.235,3.457 30.636,5.071 45.871,4.841 2.187,-0.09 3.972,-2.007 3.972,-4.206 0,-4.465 0,-8.931 0,-13.397 z"
   id="path6" />
<path
   class="st1"
   d="m 85.965649,172.32519 c -2.193,-0.301 -3.984,1.21 -3.983,3.411 0,4.466 0,8.931 0,13.396 0,2.199 1.791,4.287 3.983,4.589 16.667001,1.833 33.521001,1.624 50.188001,-0.626 2.191,-0.358 3.98,-2.49 3.98,-4.689 0,-4.466 0,-8.931 0,-13.396 0,-2.201 -1.79,-3.668 -3.98,-3.311 -16.667,2.25 -33.521,2.459 -50.188001,0.626 z"
   id="path7" />
<path
   class="st1"
   d="m 23.109649,207.98819 c 0,2.199 1.773,4.515 3.947,5.057 8.07,1.886 16.209,2.909 24.279,3.07 2.183,0.011 3.962,-1.854 3.962,-4.053 0,-3.965 0,-7.931 0,-11.896 0,-2.201 -1.779,-3.937 -3.962,-3.947 -8.07,-0.16 -16.209,-1.184 -24.279,-3.068 -2.174,-0.541 -3.947,0.743 -3.947,2.944 0,3.965 0,7.929 0,11.893 z"
   id="path8" />
<path
   class="st1"
   d="m 145.39665,188.02119 c 0,2.199 1.781,4.083 3.966,4.117 10.873,-0.05 21.851,-1.341 32.724,-3.873 2.174,-0.549 3.947,-2.855 3.947,-5.055 0,-4.466 0,-8.931 0,-13.396 0,-2.201 -1.773,-3.495 -3.947,-2.945 -10.873,2.532 -21.851,3.822 -32.724,3.872 -2.185,-0.034 -3.966,1.682 -3.966,3.883 0,4.466 0,8.932 0,13.397 z"
   id="path9" />
<path
   class="st1"
   d="m 115.22365,214.74419 c 0.028,2.203 1.835,4.145 4.023,4.271 20.891,0.498 42.027,-1.634 62.916,-6.395 2.172,-0.569 3.925,-2.866 3.898,-5.062 -0.048,-3.958 -0.096,-7.916 -0.144,-11.874 -0.027,-2.197 -1.822,-3.496 -3.996,-2.929 -20.891,4.74 -42.026,6.853 -62.915,6.335 -2.188,-0.13 -3.953,1.533 -3.927,3.738 0.049,3.973 0.097,7.944 0.145,11.916 z"
   id="path10" />
<path
   class="st1"
   d="m 48.169649,143.51019 c 0,-2.201 -1.777,-3.953 -3.959,-4.008 -5.705,-0.212 -11.449,-0.976 -17.154,-2.293 -2.175,-0.526 -3.946,0.749 -3.947,2.95 0,5.217 0,10.433 0,15.649 0,2.199 1.772,4.522 3.947,5.05 5.705,1.316 11.449,2.08 17.154,2.291 2.182,0.055 3.959,-1.793 3.959,-3.992 0,-5.216 0,-10.431 0,-15.647 z"
   id="path11" />
<path
   class="st1"
   d="m 147.98465,8.0331879 c -1.735,-1.44 -4.955,-2.566 -7.154,-2.493 -24.173,0 -48.346001,0 -72.519001,0 -2.199,-0.073 -5.418,1.052 -7.154,2.493 -18.184,14.6700001 -36.378,28.7620001 -54.5299998,41.2250001 -1.77,1.173 -1.427,2.401 0.763,2.746 64.6919998,4.994 129.6730008,4.994 194.3640008,0 2.189,-0.345 2.533,-1.573 0.763,-2.746 -18.155,-12.463 -36.349,-26.555 -54.533,-41.2250001 z"
   id="path12"
   style="fill:#664924;fill-opacity:1" />
<path
   class="st1"
   d="m 90.109649,95.857188 c -2.188,-0.427 -3.622,0.977 -3.194,3.199 1.558,8.050002 3.12,16.069002 4.683,24.061002 0.432,2.204 2.582,4.278 4.781,4.531 5.456001,0.356 10.928001,0.356 16.384001,0 2.199,-0.253 4.349,-2.327 4.781,-4.531 1.563,-7.99 3.125,-16.011 4.684,-24.061002 0.428,-2.222 -1.007,-3.626 -3.193,-3.199 -9.611,1.112 -19.317001,1.112 -28.926001,0 z"
   id="path13"
   style="fill:#1eb4d8;fill-opacity:1" />
<path
   class="st1"
   d="m 56.791649,130.78319 c 2.192,0.187 3.986,-1.461 3.986,-3.661 V 87.430188 c 0,-2.2 1.8,-4 4,-4 h 79.587001 c 2.2,0 4,1.8 4,4 v 39.692002 c 0,2.2 1.794,3.848 3.985,3.661 l 9.384,-0.872 c 2.189,-0.22 3.98,-2.199 3.98,-4.399 V 62.936188 c 0,-2.2 -1.791,-3.82 -3.979,-3.599 l -9.385,0.872 c -2.191,0.187 -3.985,2.139 -3.985,4.339 v 4.432 c 0,2.2 -1.8,4 -4,4 H 64.777649 c -2.2,0 -4,-1.8 -4,-4 v -4.433 c 0,-2.2 -1.793,-4.153 -3.986,-4.339 l -9.384,-0.873 c -2.189,-0.221 -3.98,1.399 -3.98,3.599 v 62.574002 c 0,2.2 1.791,4.181 3.98,4.401 z"
   id="path14"
   style="fill:#996936;fill-opacity:1" />
</svg>
